<svg width="20" height="20" viewBox="0 0 20 20" fill="none" xmlns="http://www.w3.org/2000/svg">
<path fill-rule="evenodd" clip-rule="evenodd" d="M-0.000244141 8.67041C-0.000244141 3.88215 3.8401 0.000488281 8.5774 0.000488281C10.8523 0.000488281 13.0341 0.913924 14.6427 2.53985C16.2513 4.16578 17.155 6.37101 17.155 8.67041C17.155 13.4587 13.3147 17.3403 8.5774 17.3403C3.8401 17.3403 -0.000244141 13.4587 -0.000244141 8.67041ZM17.0131 15.6547L19.5678 17.7169H19.6121C20.129 18.2393 20.129 19.0863 19.6121 19.6087C19.0953 20.1311 18.2573 20.1311 17.7405 19.6087L15.6205 17.1789C15.4201 16.9771 15.3074 16.7028 15.3074 16.4168C15.3074 16.1308 15.4201 15.8566 15.6205 15.6547C16.007 15.2708 16.6266 15.2708 17.0131 15.6547Z" fill="#6E9CFD"/>
</svg>
